<svg xmlns="http://www.w3.org/2000/svg" width="59" height="59" viewBox="0 0 59 59">
  <g fill="#5A80B7" transform="translate(6 7)">
    <path d="M32.6928975,34.862376 C31.9308102,27.876825 25.8660524,23.7065554 16.471467,23.7065554 C7.42074424,23.7065554 1.55960897,27.4186743 0.389278398,33.8946698 C0.225581841,34.8179583 0.167689156,37.4875098 0.167689156,38.0863996 C0.167689156,38.775622 0.726153936,39.3340868 1.41537633,39.3340868 L31.5235651,39.3340868 C31.8574462,39.3340868 32.1773532,39.2003347 32.4114193,38.9627751 C32.6459845,38.7252154 32.7752448,38.4038112 32.7712522,38.0699301 C32.7353189,35.2486599 32.702879,34.9576993 32.6928975,34.862376 Z M2.68751817,36.8387124 C2.71895989,35.8570322 2.77735165,34.7231341 2.84572491,34.3348538 C4.12435472,27.2589703 11.9313829,26.2024288 16.471467,26.2024288 C20.3093528,26.2024288 29.3326264,27.0728154 30.2114972,35.1283829 C30.2224769,35.2526525 30.2399445,35.8201006 30.2574121,36.8392115 L2.68751817,36.8392115 L2.68751817,36.8387124 Z M16.471467,20.9386862 C21.4766889,20.9386862 25.5486407,16.0562367 25.5486407,10.0548614 C25.5486407,4.35592546 21.8160598,0.375304302 16.471467,0.375304302 C11.1268742,0.375304302 7.39429327,4.35542639 7.39429327,10.0548614 C7.3937942,16.0562367 11.4662451,20.9386862 16.471467,20.9386862 Z M16.471467,2.87117773 C20.4086686,2.87117773 23.0532664,5.75832585 23.0532664,10.0553605 C23.0532664,14.6807864 20.1007395,18.4438109 16.471467,18.4438109 C12.8421945,18.4438109 9.88966762,14.6807864 9.88966762,10.0553605 C9.88916854,5.75832585 12.5342654,2.87117773 16.471467,2.87117773 Z" transform="translate(.034 .419)"/>
    <path stroke="#5A80B7" stroke-width=".525" d="M8.18665525,0.22740709 C12.6999219,0.22740709 16.3733105,3.90080478 16.3733105,8.41406689 C16.3733105,12.9273245 12.6999219,16.6007221 8.18665525,16.6007221 C3.67338837,16.6007221 0,12.9273245 0,8.41406689 C0,3.90080478 3.67338837,0.22740709 8.18665525,0.22740709 Z M8.18665525,1.59184963 C4.41079679,1.59184963 1.36444254,4.63821776 1.36444254,8.41406689 C1.36444254,12.1899115 4.41079679,15.2362796 8.18665525,15.2362796 C11.9625135,15.2362796 15.008868,12.1899115 15.008868,8.41406689 C15.008868,4.63821776 11.9625135,1.59184963 8.18665525,1.59184963 Z M8.24187199,3.57070039 C8.50888704,3.57070039 8.72536135,3.84560828 8.72536135,4.18469954 L8.72536135,8.48269764 C8.72536135,8.65226374 8.67183907,8.80650032 8.58434362,8.9176137 L6.41871418,11.6678182 C6.22991159,11.9075849 5.92258947,11.9076053 5.73377092,11.6678182 C5.54496833,11.4280515 5.54496833,11.0377527 5.73377092,10.7979861 L7.75838262,8.22686466 L7.75838262,4.18469954 C7.75838262,3.84560828 7.97484065,3.57070039 8.24187199,3.57070039 Z" transform="translate(29.805 3.611)"/>
  </g>
</svg>
