<svg xmlns="http://www.w3.org/2000/svg" width="59" height="59" viewBox="0 0 59 59">
  <g fill="#5A80B7" transform="translate(.709 8.942)">
    <path d="M54.7001877,16.5188023 C54.7001877,13.0154878 51.9604665,10.1130961 48.4630495,9.91135511 C48.4587493,9.91110938 48.4545719,9.91086366 48.4502717,9.91074079 L44.731947,9.73504676 C43.5901815,9.6672264 42.5153764,9.12490929 41.7827445,8.24631625 L36.8892356,2.37924125 C35.6280473,0.867289646 33.7755196,0 31.8066406,0 L17.7598411,0 C15.6871429,0 13.7075749,0.990029744 12.4643246,2.648434 L9.29790034,6.87209403 C8.76516654,7.58285626 8.03437765,8.09580913 7.18478027,8.35541856 L4.78059783,9.09026194 C1.97895372,9.94661678 0.0966931508,12.4901258 0.0966931508,15.4196703 L0.0966931508,20.8293265 C0.0966931508,22.249868 1.25234217,23.4053942 2.67276087,23.4053942 L7.12887762,23.4053942 C7.94653063,25.7965531 10.214458,27.5213034 12.8789871,27.5213034 C15.7612293,27.5213034 18.1794181,25.5036478 18.7997532,22.8069287 L35.4019795,22.8069287 C36.0223146,25.5036478 38.4405034,27.5213034 41.3227456,27.5213034 C43.9873975,27.5213034 46.255202,25.7965531 47.0728551,23.4053942 L52.12412,23.4053942 C53.5445387,23.4053942 54.7001877,22.2497452 54.7001877,20.8293265 L54.7001877,16.5188023 Z M12.8789871,25.0640442 C10.8832011,25.0640442 9.25968996,23.4404101 9.25968996,21.4446242 C9.25968996,19.4488382 10.883324,17.8253271 12.8789871,17.8253271 C14.8746502,17.8253271 16.4984071,19.4489611 16.4984071,21.4446242 C16.4984071,23.4402873 14.8746502,25.0640442 12.8789871,25.0640442 Z M41.3227456,25.0640442 C39.3269596,25.0640442 37.7034485,23.4404101 37.7034485,21.4446242 C37.7034485,19.4488382 39.3270825,17.8253271 41.3227456,17.8253271 C43.3184087,17.8253271 44.9420427,19.4489611 44.9420427,21.4446242 C44.9420427,23.4402873 43.3185315,25.0640442 41.3227456,25.0640442 Z M52.2429285,20.8293265 C52.2429285,20.8948124 52.189606,20.9481349 52.12412,20.9481349 L47.3773095,20.9481349 C47.1237203,17.8290129 44.5060021,15.367945 41.3226227,15.367945 C38.3458989,15.367945 35.8640671,17.5200126 35.3466911,20.3495466 L18.8547958,20.3495466 C18.3375427,17.5200126 15.8555881,15.367945 12.8788642,15.367945 C9.69548489,15.367945 7.07788949,17.8290129 6.82417747,20.9481349 L2.672638,20.9481349 C2.60715204,20.9481349 2.55382952,20.8948124 2.55382952,20.8293265 L2.55382952,15.4196703 C2.55382952,13.5778316 3.73724556,11.9786473 5.49873184,11.4402618 L7.90303714,10.7054184 C9.25428399,10.2923532 10.4165676,9.47654309 11.2639535,8.34608098 L14.4303777,4.12254381 C15.2120319,3.07968299 16.4567565,2.45725923 17.7598411,2.45725923 L31.8066406,2.45725923 C33.0446078,2.45725923 34.2093487,3.00252505 35.0021834,3.95323865 L39.8955694,9.82031366 C41.063259,11.2203371 42.7768287,12.0834494 44.5969207,12.1886201 C44.6012209,12.1888658 44.6053982,12.1891116 44.6096984,12.1892344 L48.3275316,12.3649285 C50.5235842,12.4947946 52.2429285,14.3182038 52.2429285,16.5188023 L52.2429285,20.8293265 Z" transform="translate(.075 10.824)"/>
    <path stroke="#5A80B7" stroke-width=".551" d="M8.59598802,0.238777445 C13.334918,0.238777445 17.191976,4.09584502 17.191976,8.83477024 C17.191976,13.5736907 13.334918,17.4307583 8.59598802,17.4307583 C3.85705779,17.4307583 0,13.5736907 0,8.83477024 C0,4.09584502 3.85705779,0.238777445 8.59598802,0.238777445 Z M8.59598802,1.67144211 C4.63133663,1.67144211 1.43266467,4.87012864 1.43266467,8.83477024 C1.43266467,12.7994071 4.63133663,15.9980936 8.59598802,15.9980936 C12.5606392,15.9980936 15.7593114,12.7994071 15.7593114,8.83477024 C15.7593114,4.87012864 12.5606392,1.67144211 8.59598802,1.67144211 Z M8.65396558,3.74923541 C8.9343314,3.74923541 9.16162941,4.03788869 9.16162941,4.39393451 L9.16162941,8.90683252 C9.16162941,9.08487692 9.10543103,9.24682534 9.0135608,9.36349438 L6.73964989,12.2512091 C6.54140717,12.5029641 6.21871895,12.5029856 6.02045947,12.2512091 C5.82221674,11.9994541 5.82221674,11.5896404 6.02045947,11.3378854 L8.14630175,8.63820789 L8.14630175,4.39393451 C8.14630175,4.03788869 8.37358268,3.74923541 8.65396558,3.74923541 Z" transform="translate(40.037 .012)"/>
  </g>
</svg>
