<svg xmlns="http://www.w3.org/2000/svg" width="59" height="59" viewBox="0 0 59 59">
  <g fill="#5A80B7" stroke="#5A80B7" transform="translate(10.34 6.659)">
    <path stroke-width=".643" d="M41.1754424,0.157403728 C40.952066,0.157403728 40.7336161,0.245002315 40.5759387,0.420199488 L33.5680521,7.4280865 C33.3928549,7.60328367 33.3223654,7.81379394 33.3223654,8.05906998 L33.3223654,15.0669569 C33.3223654,15.557509 33.7077995,15.9429428 34.1983516,15.9429428 L35.1092403,15.9429428 L35.1092403,34.338646 C35.1092403,34.8291981 34.7238065,35.2146319 34.2332544,35.2146319 C33.7427023,35.2146319 33.3572682,34.8291981 33.3572682,34.338646 L33.3572682,20.3228721 C33.3572682,18.8862553 32.1659274,17.6949145 30.7293106,17.6949145 L29.8533247,17.6949145 L29.8533247,4.55512651 C29.8182853,2.13740552 27.8562136,0.175197173 25.4384926,0.175197173 L7.91877524,0.175197173 C5.50105424,0.175197173 3.5388459,2.13740552 3.5388459,4.55512651 L3.5388459,42.2225188 L0.910888438,42.2225188 C0.420336352,42.2225188 0.0349025707,42.6079526 0.0349025707,43.0985047 C0.0349025707,43.5890568 0.420336352,43.9744905 0.910888438,43.9744905 L32.4463795,43.9744905 C32.9369316,43.9744905 33.3223654,43.5890568 33.3223654,43.0985047 C33.3223654,42.6079526 32.9369316,42.2225188 32.4463795,42.2225188 L29.8184219,42.2225188 L29.8184219,19.4468863 L30.6944078,19.4468863 C31.1849599,19.4468863 31.5703937,19.83232 31.5703937,20.3228721 L31.5703937,34.338646 C31.5703937,35.7752628 32.7617344,36.9666036 34.1983516,36.9666036 C35.6349684,36.9666036 36.8263092,35.7752628 36.8263092,34.338646 L36.8263092,15.9429428 L37.6673923,15.9429428 C38.1579444,15.9429428 38.5433782,15.557509 38.5433782,15.0669569 L38.5433782,4.90552086 L41.8023189,1.6465797 C42.1527132,1.29618536 42.1527132,0.735554366 41.8023189,0.420199488 C41.6271217,0.245002315 41.3988188,0.157403728 41.1754424,0.157403728 Z M7.91877524,1.92716891 L25.4384926,1.92716891 C26.8751094,1.92716891 28.0664502,3.11850969 28.0664502,4.55512651 L28.0664502,42.2225188 L5.29081763,42.2225188 L5.29081763,4.55512651 C5.29081763,3.11850969 6.48215841,1.92716891 7.91877524,1.92716891 Z"/>
    <path stroke-width=".677" d="M10.3715357,6.13190107 L22.9857322,6.13190107 C23.4762842,6.13190107 23.861718,6.51733485 23.861718,7.00788694 L23.861718,15.0669569 C23.861718,15.557509 23.4762842,15.9429428 22.9857322,15.9429428 L10.3715357,15.9429428 C9.88098358,15.9429428 9.4955498,15.557509 9.4955498,15.0669569 L9.4955498,7.00788694 C9.4955498,6.51733485 9.88098358,6.13190107 10.3715357,6.13190107 Z M10.9831512,7.35028573 L10.9831512,14.7245581 L22.3741167,14.7245581 L22.3741167,7.35028573 L10.9831512,7.35028573 Z"/>
  </g>
</svg>
