<svg xmlns="http://www.w3.org/2000/svg" xmlns:xlink="http://www.w3.org/1999/xlink" width="202" height="39" viewBox="0 0 202 39">
  <defs>
    <polygon id="logo-a" points="5.703 6.379 .081 6.379 .081 .195 5.703 .195"/>
  </defs>
  <g fill="none" fill-rule="evenodd">
    <g transform="translate(1.568 1.464)">
      <path stroke="#352F91" stroke-width="1.807" d="M7.70778733,4.36825486 C7.29515928,5.175392 7.0313274,6.01773271 6.9375483,6.82656641 C5.94932496,15.4047844 10.6637046,19.7564539 14.1422841,22.0701339 C16.5480307,23.6704116 22.3323257,27.6263591 25.4612134,29.7699593 C25.4612134,29.7699593 27.4718373,31.2620815 25.9017667,32.338123 L23.1609162,34.2153636 C20.8522831,35.796555 18.4269471,34.2730466 18.4269471,34.2730466 C15.2526287,32.0984842 9.68590119,28.292682 7.33725567,26.731001 C3.85950977,24.4168968 -0.854869894,20.0656514 0.133353445,11.4874335 C0.362174454,9.50203731 1.62006481,7.31517492 3.58317402,5.93841866 L10.6281799,1.28547482"/>
      <path stroke="#352F91" stroke-width="1.807" d="M26.4283624,7.69173563 L23.5306907,9.58032211 C21.2799076,11.0473564 18.8865467,9.60613143 18.8865467,9.60613143 L13.7461305,6.36849608 C9.6777977,3.72980074 6.08669865,4.19559745 3.6137988,5.8691063 L3.69460699,5.80765554 L10.6013803,1.30618304 L10.6804962,1.26234817 C13.1470498,-0.324310277 16.6713023,-0.71595641 20.6537499,1.86661391 L25.8170125,5.11940711 C25.8170125,5.11940711 28.2463352,6.51556822 26.4283624,7.69173563 Z"/>
      <path fill="#5A80B7" d="M26.8027627,9.034497 C25.6399627,9.034497 24.6942918,8.08882608 24.6942918,6.9264477 C24.6942918,5.76406932 25.6399627,4.8183984 26.8027627,4.8183984 C27.9651411,4.8183984 28.9103904,5.76406932 28.9103904,6.9264477 C28.9103904,8.08882608 27.9651411,9.034497 26.8027627,9.034497"/>
      <g transform="translate(24.092 3.614)">
        <mask id="logo-b" fill="#fff">
          <use xlink:href="#logo-a"/>
        </mask>
        <path fill="#FFF" d="M3.09307907,0.19496043 C1.43245248,0.19496043 0.0811498597,1.54583284 0.0811498597,3.20645943 C0.0811498597,4.86708602 1.43245248,6.21795843 3.09307907,6.21795843 C4.75327545,6.21795843 6.10414786,4.86708602 6.10414786,3.20645943 C6.10414786,1.54583284 4.75327545,0.19496043 3.09307907,0.19496043 M3.09307907,1.915817 C3.80594391,1.915817 4.38329129,2.4935946 4.38329129,3.20645943 C4.38329129,3.91932426 3.80594391,4.49710186 3.09307907,4.49710186 C2.38021424,4.49710186 1.80200643,3.91932426 1.80200643,3.20645943 C1.80200643,2.4935946 2.38021424,1.915817 3.09307907,1.915817" mask="url(#logo-b)"/>
      </g>
      <path fill="#5A80B7" d="M20.7793431,36.7402878 C19.6169647,36.7402878 18.6712938,35.7946169 18.6712938,34.6322385 C18.6712938,33.4702817 19.6169647,32.5241892 20.7793431,32.5241892 C21.9417215,32.5241892 22.8873924,33.4702817 22.8873924,34.6322385 C22.8873924,35.7946169 21.9417215,36.7402878 20.7793431,36.7402878"/>
      <path fill="#FFF" d="M3.31694531,0.000215107071 C1.65674893,0.000215107071 0.305446305,1.35108752 0.305446305,3.01171411 C0.305446305,4.67191048 1.65674893,6.02321311 3.31694531,6.02321311 C4.97714168,6.02321311 6.32844431,4.67191048 6.32844431,3.01171411 C6.32844431,1.35108752 4.97714168,0.000215107071 3.31694531,0.000215107071 M3.31694531,1.72107168 C4.03024035,1.72107168 4.60758773,2.29884927 4.60758773,3.01171411 C4.60758773,3.72457894 4.03024035,4.30235654 3.31694531,4.30235654 C2.60451068,4.30235654 2.02630288,3.72457894 2.02630288,3.01171411 C2.02630288,2.29884927 2.60451068,1.72107168 3.31694531,1.72107168" transform="translate(17.467 31.922)"/>
    </g>
    <path fill="#352F91" d="M50.5876437,26.5800375 C48.7716347,26.5800375 47.3339824,26.0655093 46.2746437,25.0364375 C45.2153051,24.0073657 44.6856437,22.6075464 44.6856437,20.8369375 C44.6856437,19.671665 44.9429078,18.6426086 45.4574438,17.7497375 C45.9719797,16.8568664 46.6945891,16.1683066 47.6252937,15.6840375 C48.5559984,15.1997684 49.6191044,14.9576375 50.8146438,14.9576375 C51.4502469,14.9576375 52.0858406,15.04087 52.7214437,15.2073375 C53.3570469,15.373805 53.9169747,15.6083693 54.4012437,15.9110375 C54.8703794,16.1985723 55.1049438,16.6374345 55.1049438,17.2276375 C55.1049438,17.6967732 54.9952282,18.078886 54.7757937,18.3739875 C54.5563593,18.669089 54.2726122,18.8166375 53.9245437,18.8166375 C53.6975426,18.8166375 53.4781115,18.7825878 53.2662438,18.7144875 C53.054376,18.6463872 52.8198117,18.5442382 52.5625438,18.4080375 C52.2598756,18.2718368 52.0026115,18.1696878 51.7907438,18.1015875 C51.578876,18.0334872 51.3443117,17.9994375 51.0870437,17.9994375 C49.5888363,17.9994375 48.8397437,18.914995 48.8397437,20.7461375 C48.8397437,21.654142 49.0326918,22.3464851 49.4185937,22.8231875 C49.8044957,23.2998899 50.3606401,23.5382375 51.0870437,23.5382375 C51.3443117,23.5382375 51.5826593,23.5041878 51.8020937,23.4360875 C52.0215282,23.3679872 52.2674424,23.2658382 52.5398438,23.1296375 C52.8425119,22.9934368 53.0884261,22.8912878 53.2775937,22.8231875 C53.4667614,22.7550872 53.6748426,22.7210375 53.9018437,22.7210375 C54.2499122,22.7210375 54.5336593,22.868586 54.7530938,23.1636875 C54.9725282,23.458789 55.0822438,23.8409018 55.0822438,24.3100375 C55.0822438,24.5975723 55.021711,24.8586197 54.9006438,25.0931875 C54.7795765,25.3277553 54.6131115,25.5055702 54.4012437,25.6266375 C53.3570385,26.2622407 52.0858512,26.5800375 50.5876437,26.5800375 Z M64.6744738,26.5800375 C63.4486676,26.5800375 62.3704284,26.3416899 61.4397237,25.8649875 C60.5090191,25.3882851 59.790193,24.7110752 59.2832238,23.8333375 C58.7762545,22.9555998 58.5227737,21.9265434 58.5227737,20.7461375 C58.5227737,19.5657316 58.7762545,18.5404585 59.2832238,17.6702875 C59.790193,16.8001165 60.5052358,16.1304732 61.4283738,15.6613375 C62.3515117,15.1922018 63.4335342,14.9576375 64.6744738,14.9576375 C65.9154133,14.9576375 66.9974358,15.1922018 67.9205738,15.6613375 C68.8437117,16.1304732 69.5587545,16.8001165 70.0657238,17.6702875 C70.572693,18.5404585 70.8261738,19.5657316 70.8261738,20.7461375 C70.8261738,21.9265434 70.572693,22.9555998 70.0657238,23.8333375 C69.5587545,24.7110752 68.8437117,25.3882851 67.9205738,25.8649875 C66.9974358,26.3416899 65.9154133,26.5800375 64.6744738,26.5800375 Z M64.6744738,23.5609375 C66.1121476,23.5609375 66.8309737,22.6226802 66.8309737,20.7461375 C66.8309737,18.8695948 66.1121476,17.9313375 64.6744738,17.9313375 C63.2367999,17.9313375 62.5179737,18.8695948 62.5179738,20.7461375 C62.5179737,22.6226802 63.2367999,23.5609375 64.6744738,23.5609375 Z M89.8162037,16.1380375 C89.9675378,15.7597023 90.1831857,15.4759551 90.4631538,15.2867875 C90.7431218,15.0976199 91.0495688,15.0030375 91.3825038,15.0030375 C91.8819062,15.0030375 92.3283351,15.1732858 92.7218037,15.5137875 C93.1152724,15.8542892 93.3120038,16.2666684 93.3120038,16.7509375 C93.3120038,16.9779386 93.251471,17.2276361 93.1304037,17.5000375 L89.4530037,25.3769375 C89.2865363,25.7552727 89.0330555,26.0465865 88.6925538,26.2508875 C88.352052,26.4551885 87.9775058,26.5573375 87.5689038,26.5573375 C87.1603017,26.5573375 86.7895387,26.4551885 86.4566037,26.2508875 C86.1236688,26.0465865 85.8739712,25.7552727 85.7075038,25.3769375 L83.5510037,20.5872375 L81.5307038,25.3769375 C81.3793697,25.7552727 81.1334555,26.0465865 80.7929537,26.2508875 C80.452452,26.4551885 80.0779058,26.5573375 79.6693037,26.5573375 C79.2607017,26.5573375 78.8861555,26.4551885 78.5456537,26.2508875 C78.205152,26.0465865 77.9441047,25.7552727 77.7625037,25.3769375 L74.1078038,17.5000375 C74.0018699,17.2730364 73.9489037,17.0309055 73.9489037,16.7736375 C73.9489037,16.274235 74.156985,15.8542892 74.5731537,15.5137875 C74.9893225,15.1732858 75.4546678,15.0030375 75.9692037,15.0030375 C76.3324056,15.0030375 76.6615523,15.0976199 76.9566538,15.2867875 C77.2517552,15.4759551 77.4749697,15.7672689 77.6263037,16.1607375 L79.7828037,21.4044375 L81.9847037,16.1834375 C82.1360378,15.8051023 82.3706022,15.5175718 82.6884037,15.3208375 C83.0062053,15.1241032 83.3467019,15.0257375 83.7099037,15.0257375 C84.0731056,15.0257375 84.4136022,15.1241032 84.7314037,15.3208375 C85.0492053,15.5175718 85.2837697,15.8051023 85.4351037,16.1834375 L87.7051037,21.4271375 L89.8162037,16.1380375 Z M150.6027,15.0030375 C151.22317,15.0030375 151.714998,15.1695025 152.0782,15.5024375 C152.441402,15.8353725 152.623,16.289368 152.623,16.8644375 L152.623,24.7186375 C152.623,25.2483068 152.433835,25.6833858 152.0555,26.0238875 C151.677165,26.3643892 151.185336,26.5346375 150.58,26.5346375 C150.035197,26.5346375 149.588768,26.387089 149.2407,26.0919875 C148.892631,25.796886 148.711033,25.39964 148.6959,24.9002375 C148.347831,25.4450402 147.905186,25.8612027 147.36795,26.1487375 C146.830714,26.4362723 146.214037,26.5800375 145.5179,26.5800375 C144.080226,26.5800375 143.013337,26.1827915 142.3172,25.3882875 C141.621063,24.5937835 141.273,23.3869123 141.273,21.7676375 L141.273,16.8644375 C141.273,16.289368 141.454598,15.8353725 141.8178,15.5024375 C142.181002,15.1695025 142.67283,15.0030375 143.2933,15.0030375 C143.91377,15.0030375 144.405598,15.1695025 144.7688,15.5024375 C145.132002,15.8353725 145.3136,16.289368 145.3136,16.8644375 L145.3136,21.8584375 C145.3136,22.9480429 145.782728,23.4928375 146.721,23.4928375 C147.265802,23.4928375 147.712231,23.2961061 148.0603,22.9026375 C148.408368,22.5091689 148.5824,21.9946407 148.5824,21.3590375 L148.5824,16.8644375 C148.5824,16.289368 148.763998,15.8353725 149.1272,15.5024375 C149.490402,15.1695025 149.98223,15.0030375 150.6027,15.0030375 Z M164.973722,14.9576375 C166.305462,14.9576375 167.296685,15.3548835 167.947422,16.1493875 C168.598158,16.9438915 168.923522,18.1507627 168.923522,19.7700375 L168.923522,24.6732375 C168.923522,25.248307 168.741924,25.7023025 168.378722,26.0352375 C168.01552,26.3681725 167.523692,26.5346375 166.903222,26.5346375 C166.282752,26.5346375 165.790924,26.3681725 165.427722,26.0352375 C165.06452,25.7023025 164.882922,25.248307 164.882922,24.6732375 L164.882922,19.9516375 C164.882922,19.2857675 164.76564,18.8015057 164.531072,18.4988375 C164.296504,18.1961693 163.944657,18.0448375 163.475522,18.0448375 C162.870185,18.0448375 162.389707,18.2377856 162.034072,18.6236875 C161.678437,19.0095894 161.500622,19.5279009 161.500622,20.1786375 L161.500622,24.6732375 C161.500622,25.248307 161.319024,25.7023025 160.955822,26.0352375 C160.59262,26.3681725 160.100792,26.5346375 159.480322,26.5346375 C158.859852,26.5346375 158.368024,26.3681725 158.004822,26.0352375 C157.64162,25.7023025 157.460022,25.248307 157.460022,24.6732375 L157.460022,16.8190375 C157.460022,16.2893682 157.649187,15.8542892 158.027522,15.5137875 C158.405857,15.1732858 158.897685,15.0030375 159.503022,15.0030375 C160.078091,15.0030375 160.53587,15.1619359 160.876372,15.4797375 C161.216873,15.7975391 161.387122,16.2137016 161.387122,16.7282375 C161.78059,16.153168 162.287552,15.7143057 162.908022,15.4116375 C163.528492,15.1089693 164.217051,14.9576375 164.973722,14.9576375 Z M183.589644,15.0030375 C184.19498,15.0030375 184.679242,15.1732858 185.042444,15.5137875 C185.405646,15.8542892 185.587244,16.3045014 185.587244,16.8644375 L185.587244,25.0364375 C185.587244,26.8827134 185.031099,28.2825327 183.918794,29.2359375 C182.806488,30.1893423 181.175888,30.6660375 179.026944,30.6660375 C178.194606,30.6660375 177.407681,30.5903716 176.666144,30.4390375 C175.924607,30.2877034 175.29658,30.0682723 174.782044,29.7807375 C174.509642,29.6294034 174.293995,29.432672 174.135094,29.1905375 C173.976193,28.948403 173.896744,28.6760057 173.896744,28.3733375 C173.896744,27.9344686 174.006459,27.5788389 174.225894,27.3064375 C174.445328,27.0340361 174.729075,26.8978375 175.077144,26.8978375 C175.349545,26.8978375 175.841374,27.0113364 176.552644,27.2383375 C177.021779,27.3896716 177.437942,27.5069538 177.801144,27.5901875 C178.164346,27.6734212 178.535109,27.7150375 178.913444,27.7150375 C179.836582,27.7150375 180.513792,27.5220894 180.945094,27.1361875 C181.376396,26.7502856 181.592044,26.141175 181.592044,25.3088375 L181.592044,24.4462375 C181.259109,24.94564 180.782414,25.342886 180.161944,25.6379875 C179.541474,25.933089 178.868047,26.0806375 178.141644,26.0806375 C177.173106,26.0806375 176.310514,25.8536398 175.553844,25.3996375 C174.797173,24.9456352 174.206979,24.2986917 173.783244,23.4587875 C173.359508,22.6188833 173.147644,21.6465764 173.147644,20.5418375 C173.147644,19.4370986 173.359508,18.4610084 173.783244,17.6135375 C174.206979,16.7660666 174.797173,16.1115565 175.553844,15.6499875 C176.310514,15.1884185 177.173106,14.9576375 178.141644,14.9576375 C178.883181,14.9576375 179.564174,15.1089693 180.184644,15.4116375 C180.805114,15.7143057 181.281809,16.1304682 181.614744,16.6601375 C181.645011,16.1456016 181.837959,15.740789 182.193594,15.4456875 C182.549229,15.150586 183.014574,15.0030375 183.589644,15.0030375 Z M179.367444,23.0615375 C180.078714,23.0615375 180.631075,22.8421064 181.024544,22.4032375 C181.418012,21.9643686 181.614744,21.3439082 181.614744,20.5418375 C181.614744,19.7397668 181.418012,19.1117398 181.024544,18.6577375 C180.631075,18.2037352 180.078714,17.9767375 179.367444,17.9767375 C178.671307,17.9767375 178.126512,18.1999519 177.733044,18.6463875 C177.339575,19.0928231 177.142844,19.7246334 177.142844,20.5418375 C177.142844,21.3287748 177.343358,21.9454519 177.744394,22.3918875 C178.145429,22.8383231 178.68644,23.0615375 179.367444,23.0615375 Z M195.622566,14.9576375 C197.347774,14.9576375 198.622745,15.3700167 199.447516,16.1947875 C200.272287,17.0195583 200.684666,18.2718291 200.684666,19.9516375 L200.684666,24.6959375 C200.684666,25.271007 200.514417,25.7212192 200.173916,26.0465875 C199.833414,26.3719558 199.360502,26.5346375 198.755166,26.5346375 C198.225496,26.5346375 197.790417,26.3833057 197.449916,26.0806375 C197.109414,25.7779693 196.924033,25.3693734 196.893766,24.8548375 C196.681898,25.3996402 196.326268,25.8233693 195.826866,26.1260375 C195.327463,26.4287057 194.729703,26.5800375 194.033566,26.5800375 C193.261762,26.5800375 192.565636,26.4249224 191.945166,26.1146875 C191.324696,25.8044526 190.836651,25.3731569 190.481016,24.8207875 C190.125381,24.2684181 189.947566,23.6441743 189.947566,22.9480375 C189.947566,22.1459668 190.155647,21.5065899 190.571816,21.0298875 C190.987984,20.5531851 191.650061,20.2089052 192.558066,19.9970375 C193.46607,19.7851698 194.691858,19.6792375 196.235466,19.6792375 L196.848366,19.6792375 L196.848366,19.4068375 C196.848366,18.8771682 196.7273,18.4950553 196.485166,18.2604875 C196.243031,18.0259197 195.834435,17.9086375 195.259366,17.9086375 C194.638896,17.9086375 193.730905,18.120502 192.535366,18.5442375 C192.187297,18.6653048 191.8922,18.7258375 191.650066,18.7258375 C191.271731,18.7258375 190.969067,18.5896389 190.742066,18.3172375 C190.515065,18.0448361 190.401566,17.6892064 190.401566,17.2503375 C190.401566,16.9174025 190.469665,16.6450052 190.605866,16.4331375 C190.742066,16.2212698 190.961498,16.032105 191.264166,15.8656375 C191.793835,15.5932361 192.459695,15.373805 193.261766,15.2073375 C194.063836,15.04087 194.850762,14.9576375 195.622566,14.9576375 Z M194.986966,23.8787375 C195.531768,23.8787375 195.978197,23.6857894 196.326266,23.2998875 C196.674334,22.9139856 196.848366,22.4183739 196.848366,21.8130375 L196.848366,21.5406375 L196.485166,21.5406375 C195.516628,21.5406375 194.828068,21.6276533 194.419466,21.8016875 C194.010864,21.9757217 193.806566,22.2670355 193.806566,22.6756375 C193.806566,23.0237059 193.916281,23.3112364 194.135716,23.5382375 C194.35515,23.7652386 194.638897,23.8787375 194.986966,23.8787375 Z"/>
    <g fill="#5A80B7" transform="translate(96 10)">
      <path d="M6.29133375 4.9576375C8.01654238 4.9576375 9.29151296 5.37001671 10.1162837 6.1947875 10.9410545 7.01955829 11.3534337 8.2718291 11.3534337 9.9516375L11.3534337 14.6959375C11.3534337 15.271007 11.1831855 15.7212192 10.8426837 16.0465875 10.502182 16.3719558 10.0292701 16.5346375 9.42393375 16.5346375 8.89426443 16.5346375 8.45918545 16.3833057 8.11868375 16.0806375 7.77818205 15.7779693 7.59280057 15.3693734 7.56253375 14.8548375 7.35066602 15.3996402 6.99503625 15.8233693 6.49563375 16.1260375 5.99623125 16.4287057 5.39847056 16.5800375 4.70233375 16.5800375 3.93052989 16.5800375 3.23440352 16.4249224 2.61393375 16.1146875 1.99346398 15.8044526 1.50541886 15.3731569 1.14978375 14.8207875.794148638 14.2684181.61633375 13.6441743.61633375 12.9480375.61633375 12.1459668.824415002 11.5065899 1.24058375 11.0298875 1.6567525 10.5531851 2.31882921 10.2089052 3.22683375 9.9970375 4.13483829 9.78516977 5.36062603 9.6792375 6.90423375 9.6792375L7.51713375 9.6792375 7.51713375 9.4068375C7.51713375 8.87716819 7.39606829 8.49505534 7.15393375 8.2604875 6.91179921 8.02591966 6.50320329 7.9086375 5.92813375 7.9086375 5.30766398 7.9086375 4.39967306 8.12050205 3.20413375 8.5442375 2.85606534 8.66530477 2.56096829 8.7258375 2.31883375 8.7258375 1.94049852 8.7258375 1.63783488 8.58963886 1.41083375 8.3172375 1.18383261 8.04483614 1.07033375 7.68920636 1.07033375 7.2503375 1.07033375 6.9174025 1.13843307 6.64500523 1.27463375 6.4331375 1.41083443 6.22126977 1.63026557 6.032105 1.93293375 5.8656375 2.46260306 5.59323614 3.12846307 5.373805 3.93053375 5.2073375 4.73260443 5.04087 5.51952989 4.9576375 6.29133375 4.9576375zM5.65573375 13.8787375C6.20053647 13.8787375 6.64696534 13.6857894 6.99503375 13.2998875 7.34310216 12.9139856 7.51713375 12.4183739 7.51713375 11.8130375L7.51713375 11.5406375 7.15393375 11.5406375C6.18539557 11.5406375 5.49683579 11.6276533 5.08823375 11.8016875 4.67963171 11.9757217 4.47533375 12.2670355 4.47533375 12.6756375 4.47533375 13.0237059 4.58504932 13.3112364 4.80448375 13.5382375 5.02391818 13.7652386 5.30766534 13.8787375 5.65573375 13.8787375zM17.8475557 11.8811375C16.5914828 11.8811375 15.9634557 11.3514761 15.9634557 10.2921375 15.9634557 9.24793228 16.5914828 8.7258375 17.8475557 8.7258375L22.1151557 8.7258375C22.7507589 8.7258375 23.2236709 8.86203614 23.5339057 9.1344375 23.8441406 9.40683886 23.9992557 9.792735 23.9992557 10.2921375 23.9992557 10.79154 23.8441406 11.1812194 23.5339057 11.4611875 23.2236709 11.7411556 22.7507589 11.8811375 22.1151557 11.8811375L17.8475557 11.8811375zM36.1002777 4.9576375C37.0688159 4.9576375 37.9238407 5.19220182 38.6653777 5.6613375 39.4069148 6.13047318 39.985759 6.80011648 40.4019277 7.6702875 40.8180965 8.54045852 41.0261777 9.55059842 41.0261777 10.7007375 41.0261777 11.8508766 40.8180965 12.8723664 40.4019277 13.7652375 39.985759 14.6581086 39.4031315 15.3504517 38.6540277 15.8422875 37.904924 16.3341233 37.0536825 16.5800375 36.1002777 16.5800375 35.3587407 16.5800375 34.6815308 16.4287057 34.0686277 16.1260375 33.4557247 15.8233693 32.9903793 15.4072068 32.6725777 14.8775375 32.6271775 15.3920734 32.4266629 15.796886 32.0710277 16.0919875 31.7153926 16.387089 31.2500473 16.5346375 30.6749777 16.5346375 30.0696414 16.5346375 29.5891629 16.3643892 29.2335277 16.0238875 28.8778926 15.6833858 28.7000777 15.2331736 28.7000777 14.6732375L28.7000777 2.0974375C28.7000777 1.56776818 28.8892425 1.1326892 29.2675777.7921875 29.645913.451685797 30.145308.2814375 30.7657777.2814375 31.3559807.2814375 31.8326759.440335911 32.1958777.7581375 32.5590796 1.07593909 32.7406777 1.49966818 32.7406777 2.0293375L32.7406777 6.5466375C33.0736127 6.06236841 33.5389581 5.67647227 34.1367277 5.3889375 34.7344974 5.10140273 35.3890075 4.9576375 36.1002777 4.9576375zM34.8517777 13.5609375C35.5479146 13.5609375 36.0851425 13.3150233 36.4634777 12.8231875 36.841813 12.3313517 37.0309777 11.6238754 37.0309777 10.7007375 37.0309777 9.82299978 36.8455963 9.14957318 36.4748277 8.6804375 36.1040592 8.21130182 35.5706146 7.9767375 34.8744777 7.9767375 34.1632075 7.9767375 33.618413 8.21508512 33.2400777 8.6917875 32.8617425 9.16848988 32.6725777 9.85326637 32.6725777 10.7461375 32.6725777 11.654142 32.8617425 12.3502684 33.2400777 12.8345375 33.618413 13.3188066 34.1556409 13.5609375 34.8517777 13.5609375z"/>
    </g>
  </g>
</svg>
