<svg xmlns="http://www.w3.org/2000/svg" width="19" height="16" viewBox="0 0 19 16">
  <path fill="#5A80B7" fill-rule="evenodd" d="M4.41995,0.67805 C5.69195636,0.67805 6.70954618,1.13119547 7.47275,2.0375 C8.23595382,2.94380453 8.61755,4.25554141 8.61755,5.97275 C8.61755,9.27996654 7.42506193,12.1737376 5.04005,14.65415 C4.62664793,15.0993522 4.13375286,15.32195 3.56135,15.32195 C3.0207473,15.32195 2.54375207,15.1391018 2.13035,14.7734 C1.71694793,14.4076982 1.51025,13.9704525 1.51025,13.46165 C1.51025,13.0164478 1.68514825,12.6030519 2.03495,12.22145 C3.08435525,11.1084444 3.78394825,9.91595636 4.13375,8.64395 C3.05254459,8.54854952 2.17805334,8.1510535 1.51025,7.45145 C0.842446661,6.7518465 0.50855,5.86145541 0.50855,4.78025 C0.50855,3.60364412 0.882196264,2.6258039 1.6295,1.8467 C2.37680374,1.0675961 3.30694444,0.67805 4.41995,0.67805 Z M14.29385,0.67805 C15.5658564,0.67805 16.5834462,1.13119547 17.34665,2.0375 C18.1098538,2.94380453 18.49145,4.25554141 18.49145,5.97275 C18.49145,9.27996654 17.2989619,12.1737376 14.91395,14.65415 C14.5005479,15.0993522 14.0076529,15.32195 13.43525,15.32195 C12.8946473,15.32195 12.4176521,15.1391018 12.00425,14.7734 C11.5908479,14.4076982 11.38415,13.9704525 11.38415,13.46165 C11.38415,13.0164478 11.5590483,12.6030519 11.90885,12.22145 C12.9582552,11.1084444 13.6578483,9.91595636 14.00765,8.64395 C12.9264446,8.54854952 12.0519533,8.1510535 11.38415,7.45145 C10.7163467,6.7518465 10.38245,5.86145541 10.38245,4.78025 C10.38245,3.60364412 10.7560963,2.6258039 11.5034,1.8467 C12.2507037,1.0675961 13.1808444,0.67805 14.29385,0.67805 Z" opacity=".299"/>
</svg>
