<svg xmlns="http://www.w3.org/2000/svg" width="19" height="16" viewBox="0 0 19 16">
  <path fill="#5A80B7" fill-rule="evenodd" d="M4.99235,7.35605 C6.07355541,7.45145048 6.94804666,7.8489465 7.61585,8.54855 C8.28365334,9.2481535 8.61755,10.1385446 8.61755,11.21975 C8.61755,12.3963559 8.24390374,13.3741961 7.4966,14.1533 C6.74929626,14.9324039 5.81915557,15.32195 4.70615,15.32195 C3.43414364,15.32195 2.41655382,14.8688045 1.65335,13.9625 C0.890146184,13.0561955 0.50855,11.7444586 0.50855,10.02725 C0.50855,6.6882333 1.68513823,3.79446224 4.03835,1.34585 C4.48355223,0.900647774 4.99234714,0.67805 5.56475,0.67805 C6.1053527,0.67805 6.58234793,0.860898171 6.99575,1.2266 C7.40915207,1.59230183 7.61585,2.02954746 7.61585,2.53835 C7.61585,2.98355223 7.44095175,3.39694809 7.09115,3.77855 C6.04174475,4.89155556 5.34215175,6.08404364 4.99235,7.35605 Z M14.86625,7.35605 C15.9474554,7.45145048 16.8219467,7.8489465 17.48975,8.54855 C18.1575533,9.2481535 18.49145,10.1385446 18.49145,11.21975 C18.49145,12.3963559 18.1178037,13.3741961 17.3705,14.1533 C16.6231963,14.9324039 15.6930556,15.32195 14.58005,15.32195 C13.3080436,15.32195 12.2904538,14.8688045 11.52725,13.9625 C10.7640462,13.0561955 10.38245,11.7444586 10.38245,10.02725 C10.38245,6.6882333 11.5590382,3.79446224 13.91225,1.34585 C14.3574522,0.900647774 14.8662471,0.67805 15.43865,0.67805 C15.9792527,0.67805 16.4562479,0.860898171 16.86965,1.2266 C17.2830521,1.59230183 17.48975,2.02954746 17.48975,2.53835 C17.48975,2.98355223 17.3148517,3.39694809 16.96505,3.77855 C15.9156448,4.89155556 15.2160517,6.08404364 14.86625,7.35605 Z" opacity=".299"/>
</svg>
