<svg xmlns="http://www.w3.org/2000/svg" width="53" height="53" viewBox="0 0 53 53">
  <g fill="none" fill-rule="evenodd">
    <rect width="32.251" height="23" x="17.442" y="15" fill="#FFF199"/>
    <path fill="#352F91" fill-rule="nonzero" d="M19.6783288,5.46620249e-06 C17.2746209,5.46620249e-06 15.3053668,1.96924863 15.3053668,4.37296742 L15.3053668,20.7715802 C15.3053668,23.1752881 17.2746209,25.1445422 19.6783288,25.1445422 L45.9161005,25.1445422 C48.3198084,25.1445422 50.2890625,23.1752881 50.2890625,20.7715802 L50.2890625,4.37296742 C50.2890625,1.96924863 48.3198084,5.46620249e-06 45.9161005,5.46620249e-06 L19.6783288,5.46620249e-06 Z M19.6783288,2.18648644 L45.9161005,2.18648644 C47.1463241,2.18648644 48.1025815,3.1427439 48.1025815,4.37296742 L48.1025815,20.7715802 C48.1025815,22.0018037 47.1463241,22.9580612 45.9161005,22.9580612 L19.6783288,22.9580612 C18.4481053,22.9580612 17.4918478,22.0018037 17.4918478,20.7715802 L17.4918478,4.37296742 C17.4918478,3.1427439 18.4481053,2.18648644 19.6783288,2.18648644 Z M1.09324071,4.91958767 C0.489443986,4.91958767 0,5.40903143 0,6.01282816 C0,6.61662488 0.489443986,7.10606865 1.09324071,7.10606865 L12.0256454,7.10606865 C12.6294421,7.10606865 13.1188859,6.61662488 13.1188859,6.01282816 C13.1188859,5.40903143 12.6294421,4.91958767 12.0256454,4.91958767 L1.09324071,4.91958767 Z M22.2918295,5.44912603 C21.8662905,5.49055965 21.5039459,5.77623468 21.3643523,6.1803557 C21.2247586,6.58447673 21.3335312,7.03288761 21.6427726,7.32813312 L27.1430842,12.7943684 L21.6768817,17.7651689 C21.2287562,18.1708487 21.1943471,18.8629947 21.6000269,19.3111203 C22.0057068,19.7592458 22.6978528,19.7936549 23.1459783,19.3879751 L28.6975628,14.3317378 L30.3544781,15.9715985 C31.6945723,17.301143 33.8822559,17.2980272 35.222842,15.9715985 L36.879812,14.3317378 L42.448451,19.3879751 C42.8965766,19.7936549 43.5887226,19.7592458 43.9944024,19.3111203 C44.4000822,18.8629947 44.3656732,18.1708487 43.9175476,17.7651689 L38.4342359,12.7772591 L43.9516567,7.32813312 C44.2388156,7.0555278 44.3561521,6.64897247 44.2584082,6.26527985 C44.1606643,5.88158723 43.8631158,5.58072189 43.4805302,5.47873081 C43.0979447,5.37673972 42.6901136,5.48956235 42.4143419,5.7736818 L33.668418,14.4171199 C33.2652309,14.8160433 32.2929028,14.8151141 31.8919022,14.4171199 L23.1800874,5.7736818 C22.9485226,5.5364191 22.6218091,5.417043 22.2918295,5.44912603 Z M3.27972147,11.4790361 C2.67592496,11.4790361 2.1864812,11.9684798 2.1864812,12.5722766 C2.1864812,13.1760733 2.67592496,13.665517 3.27972147,13.665517 L12.0256454,13.665517 C12.6294421,13.665517 13.1188859,13.1760733 13.1188859,12.5722766 C13.1188859,11.9684798 12.6294421,11.4790361 12.0256454,11.4790361 L3.27972147,11.4790361 Z M5.46620245,18.038479 C4.86240572,18.038479 4.37296196,18.5279228 4.37296196,19.1317195 C4.37296196,19.7355162 4.86240572,20.22496 5.46620245,20.22496 L12.0256454,20.22496 C12.6294421,20.22496 13.1188859,19.7355162 13.1188859,19.1317195 C13.1188859,18.5279228 12.6294421,18.038479 12.0256454,18.038479 L5.46620245,18.038479 Z" transform="translate(1 14.5)"/>
  </g>
</svg>
